<svg width="24" height="24" viewBox="0 0 24 24" fill="none" xmlns="http://www.w3.org/2000/svg">
<path d="M0 12C0 8.27247 0 6.4087 0.608964 4.93853C1.42092 2.97831 2.97831 1.42092 4.93853 0.608964C6.4087 0 8.27247 0 12 0V0C15.7275 0 17.5913 0 19.0615 0.608964C21.0217 1.42092 22.5791 2.97831 23.391 4.93853C24 6.4087 24 8.27247 24 12V12C24 15.7275 24 17.5913 23.391 19.0615C22.5791 21.0217 21.0217 22.5791 19.0615 23.391C17.5913 24 15.7275 24 12 24V24C8.27247 24 6.4087 24 4.93853 23.391C2.97831 22.5791 1.42092 21.0217 0.608964 19.0615C0 17.5913 0 15.7275 0 12V12Z" fill="#E5ECF6"/>
<path d="M12 9.50001C11.5056 9.50001 11.0222 9.64663 10.6111 9.92133C10.2 10.196 9.87955 10.5865 9.69033 11.0433C9.50112 11.5001 9.45161 12.0028 9.54807 12.4877C9.64453 12.9727 9.88264 13.4181 10.2323 13.7678C10.5819 14.1174 11.0274 14.3555 11.5123 14.452C11.9973 14.5484 12.4999 14.4989 12.9567 14.3097C13.4136 14.1205 13.804 13.8001 14.0787 13.3889C14.3534 12.9778 14.5 12.4945 14.5 12C14.5 11.337 14.2366 10.7011 13.7678 10.2322C13.299 9.7634 12.6631 9.50001 12 9.50001ZM12 13.5C11.7034 13.5 11.4134 13.412 11.1667 13.2472C10.92 13.0824 10.7277 12.8481 10.6142 12.574C10.5007 12.2999 10.471 11.9983 10.5289 11.7074C10.5867 11.4164 10.7296 11.1491 10.9394 10.9393C11.1492 10.7296 11.4164 10.5867 11.7074 10.5288C11.9984 10.471 12.3 10.5007 12.5741 10.6142C12.8481 10.7277 13.0824 10.92 13.2472 11.1667C13.4121 11.4133 13.5 11.7033 13.5 12C13.5 12.3978 13.342 12.7794 13.0607 13.0607C12.7794 13.342 12.3979 13.5 12 13.5ZM16.6069 13.9463C16.3921 14.4541 16.0947 14.9229 15.7269 15.3338C15.6378 15.4301 15.5145 15.4876 15.3834 15.4938C15.2523 15.5 15.124 15.4545 15.0262 15.3669C14.9285 15.2794 14.869 15.157 14.8607 15.026C14.8524 14.895 14.8959 14.766 14.9819 14.6669C15.6384 13.9338 16.0015 12.9844 16.0015 12.0003C16.0015 11.0163 15.6384 10.0668 14.9819 9.33376C14.9369 9.28504 14.902 9.22786 14.8793 9.16554C14.8566 9.10322 14.8465 9.037 14.8497 8.97074C14.8528 8.90449 14.8691 8.83952 14.8976 8.77962C14.9261 8.71972 14.9662 8.66609 15.0156 8.62185C15.065 8.57761 15.1228 8.54365 15.1855 8.52194C15.2481 8.50023 15.3145 8.49121 15.3807 8.4954C15.4469 8.49959 15.5116 8.51691 15.571 8.54635C15.6305 8.57579 15.6835 8.61676 15.7269 8.66688C16.3582 9.37334 16.7761 10.2445 16.9319 11.1791C17.0877 12.1136 16.975 13.0732 16.6069 13.9463ZM8.31253 10.4431C8.01752 11.1415 7.92704 11.9093 8.05164 12.6571C8.17623 13.4049 8.51078 14.1019 9.01628 14.6669C9.10224 14.766 9.14577 14.895 9.13748 15.026C9.12919 15.157 9.06974 15.2794 8.97196 15.3669C8.87418 15.4545 8.74591 15.5 8.61483 15.4938C8.48374 15.4876 8.36035 15.4301 8.27128 15.3338C7.4504 14.4175 6.99647 13.2305 6.99647 12.0003C6.99647 10.7701 7.4504 9.58316 8.27128 8.66688C8.35972 8.56784 8.48387 8.50799 8.61644 8.50048C8.749 8.49298 8.87912 8.53845 8.97816 8.62688C9.0772 8.71532 9.13706 8.83947 9.14456 8.97204C9.15206 9.1046 9.10659 9.23472 9.01816 9.33376C8.72316 9.66194 8.48471 10.0368 8.31253 10.4431ZM19.5 12C19.5031 13.9636 18.7332 15.8495 17.3569 17.25C17.3114 17.2987 17.2566 17.3378 17.1957 17.365C17.1348 17.3922 17.0692 17.4069 17.0025 17.4083C16.9359 17.4098 16.8696 17.3979 16.8077 17.3733C16.7457 17.3488 16.6892 17.3121 16.6416 17.2654C16.5941 17.2188 16.5563 17.163 16.5305 17.1016C16.5048 17.0401 16.4916 16.9741 16.4917 16.9074C16.4919 16.8407 16.5054 16.7748 16.5314 16.7134C16.5574 16.652 16.5954 16.5965 16.6432 16.55C17.8349 15.3359 18.5025 13.7025 18.5025 12.0013C18.5025 10.3 17.8349 8.66666 16.6432 7.45251C16.55 7.35786 16.4983 7.23008 16.4993 7.09728C16.5004 6.96448 16.5541 6.83754 16.6488 6.74438C16.7434 6.65123 16.8712 6.59948 17.004 6.60054C17.1368 6.60159 17.2638 6.65536 17.3569 6.75001C18.7332 8.15053 19.5031 10.0364 19.5 12ZM7.35691 16.5488C7.40295 16.5956 7.43932 16.6511 7.46392 16.712C7.48853 16.7729 7.50089 16.8381 7.50031 16.9038C7.49973 16.9695 7.48622 17.0344 7.46054 17.0949C7.43486 17.1554 7.39752 17.2102 7.35066 17.2563C7.30379 17.3023 7.24832 17.3387 7.1874 17.3633C7.12648 17.3879 7.06131 17.4002 6.99561 17.3997C6.92992 17.3991 6.86498 17.3856 6.8045 17.3599C6.74403 17.3342 6.6892 17.2969 6.64316 17.25C5.26702 15.8491 4.49597 13.9638 4.49597 12C4.49597 10.0362 5.26702 8.15096 6.64316 6.75001C6.68869 6.70133 6.7435 6.66224 6.80436 6.63505C6.86522 6.60786 6.9309 6.59311 6.99754 6.59167C7.06418 6.59023 7.13044 6.60213 7.19242 6.62668C7.25439 6.65122 7.31083 6.6879 7.35842 6.73458C7.40601 6.78125 7.44379 6.83697 7.46953 6.89846C7.49528 6.95994 7.50847 7.02595 7.50832 7.09261C7.50818 7.15927 7.49472 7.22523 7.46871 7.2866C7.44271 7.34798 7.4047 7.40354 7.35691 7.45001C6.1652 8.66416 5.49756 10.2975 5.49756 11.9988C5.49756 13.7 6.1652 15.3334 7.35691 16.5475V16.5488Z" fill="#1C1C1C"/>
</svg>
