<svg width="20" height="20" viewBox="0 0 20 20" fill="none" xmlns="http://www.w3.org/2000/svg">
<path d="M14.3852 11.5391C14.2995 11.6143 14.2358 11.7113 14.2009 11.8199C14.1659 11.9284 14.1611 12.0444 14.1867 12.1555L15.243 16.7289C15.2709 16.8484 15.263 16.9734 15.2204 17.0884C15.1777 17.2034 15.1022 17.3033 15.0032 17.3757C14.9041 17.4481 14.786 17.4897 14.6634 17.4955C14.5409 17.5012 14.4194 17.4707 14.3141 17.4078L10.3219 14.9859C10.2249 14.927 10.1135 14.8958 10 14.8958C9.88648 14.8958 9.77513 14.927 9.67813 14.9859L5.68594 17.4078C5.58061 17.4707 5.4591 17.5012 5.33657 17.4955C5.21403 17.4897 5.09588 17.4481 4.99685 17.3757C4.89781 17.3033 4.82226 17.2034 4.77962 17.0884C4.73698 16.9734 4.72912 16.8484 4.75704 16.7289L5.81329 12.1555C5.83896 12.0444 5.83407 11.9284 5.79913 11.8199C5.76419 11.7113 5.70051 11.6143 5.61485 11.5391L2.09063 8.46484C1.99641 8.38476 1.92806 8.27854 1.89424 8.1596C1.86041 8.04067 1.86262 7.91437 1.90059 7.79669C1.93856 7.67901 2.01059 7.57524 2.10755 7.49851C2.20452 7.42178 2.32206 7.37553 2.44532 7.36562L7.09063 6.96406C7.20396 6.95397 7.31239 6.91312 7.40422 6.84594C7.49605 6.77875 7.5678 6.68777 7.61172 6.58281L9.42657 2.25781C9.47504 2.14599 9.55515 2.05079 9.65703 1.98391C9.75892 1.91703 9.87813 1.8814 10 1.8814C10.1219 1.8814 10.2411 1.91703 10.343 1.98391C10.4449 2.05079 10.525 2.14599 10.5734 2.25781L12.3883 6.58281C12.4322 6.68777 12.504 6.77875 12.5958 6.84594C12.6876 6.91312 12.796 6.95397 12.9094 6.96406L17.5547 7.36562C17.6779 7.37553 17.7955 7.42178 17.8925 7.49851C17.9894 7.57524 18.0615 7.67901 18.0994 7.79669C18.1374 7.91437 18.1396 8.04067 18.1058 8.1596C18.0719 8.27854 18.0036 8.38476 17.9094 8.46484L14.3852 11.5391Z" fill="#1C1C1C" fill-opacity="0.1"/>
<path d="M18.6875 7.60078C18.6118 7.36749 18.4691 7.16162 18.2773 7.00881C18.0855 6.856 17.8529 6.76301 17.6086 6.74141L12.9687 6.34141L11.15 2.01641C11.0553 1.78947 10.8956 1.59562 10.6909 1.45926C10.4863 1.32291 10.2459 1.25016 9.99999 1.25016C9.75408 1.25016 9.51368 1.32291 9.30904 1.45926C9.1044 1.59562 8.94468 1.78947 8.84999 2.01641L7.03671 6.34141L2.39139 6.74375C2.14611 6.76436 1.91237 6.85693 1.71949 7.00986C1.5266 7.16278 1.38316 7.36925 1.30715 7.60337C1.23114 7.83749 1.22595 8.08884 1.29222 8.3259C1.35849 8.56296 1.49327 8.77518 1.67967 8.93594L5.20389 12.0156L4.14764 16.5891C4.09179 16.8284 4.10773 17.0789 4.19346 17.3092C4.27919 17.5395 4.43092 17.7395 4.62967 17.884C4.82842 18.0286 5.06537 18.1113 5.3109 18.122C5.55643 18.1326 5.79965 18.0706 6.01014 17.9437L9.99452 15.5219L13.9875 17.9437C14.198 18.0706 14.4412 18.1326 14.6867 18.122C14.9323 18.1113 15.1692 18.0286 15.368 17.884C15.5667 17.7395 15.7184 17.5395 15.8042 17.3092C15.8899 17.0789 15.9058 16.8284 15.85 16.5891L14.7945 12.0109L18.318 8.93594C18.5043 8.77462 18.6389 8.5618 18.7046 8.32423C18.7704 8.08667 18.7644 7.83497 18.6875 7.60078ZM17.4984 7.99141L13.975 11.0664C13.8035 11.2156 13.6759 11.4087 13.606 11.6249C13.5361 11.8412 13.5264 12.0724 13.5781 12.2938L14.6367 16.875L10.6469 14.4531C10.4522 14.3346 10.2287 14.2719 10.0008 14.2719C9.77285 14.2719 9.54933 14.3346 9.35467 14.4531L5.3703 16.875L6.42186 12.2969C6.47354 12.0755 6.4639 11.8443 6.39397 11.6281C6.32404 11.4118 6.19647 11.2187 6.02499 11.0695L2.49999 7.99609C2.4997 7.99376 2.4997 7.9914 2.49999 7.98906L7.14374 7.5875C7.37046 7.56752 7.58742 7.48601 7.77122 7.35178C7.95502 7.21754 8.09868 7.03567 8.18671 6.82578L9.99999 2.50625L11.8125 6.82578C11.9005 7.03567 12.0442 7.21754 12.228 7.35178C12.4118 7.48601 12.6287 7.56752 12.8555 7.5875L17.5 7.98906C17.5 7.98906 17.5 7.99375 17.5 7.99453L17.4984 7.99141Z" fill="#1C1C1C"/>
</svg>
